Coordinates
version=1
nRows=6
nColumns=46
inDegrees=yes

Units are S.I. units (second, meters, Newtons, ...)
Angles are in degrees.

endheader
time	pelvis_tilt	pelvis_list	pelvis_rotation	pelvis_tx	pelvis_ty	pelvis_tz	bb_angle	bb_tx	bb_ty	bb_tz	hip_flexion_r	hip_adduction_r	hip_rotation_r	knee_angle_r	knee_angle_r_beta	ankle_angle_r	subtalar_angle_r	mtp_angle_r	crank_angle_r	hip_flexion_l	hip_adduction_l	hip_rotation_l	knee_angle_l	knee_angle_l_beta	ankle_angle_l	subtalar_angle_l	mtp_angle_l	crank_angle_l	lumbar_extension	lumbar_bending	lumbar_rotation	arm_flex_r	arm_add_r	arm_rot_r	elbow_flex_r	pro_sup_r	wrist_flex_r	wrist_dev_r	arm_flex_l	arm_add_l	arm_rot_l	elbow_flex_l	pro_sup_l	wrist_flex_l	wrist_dev_l
      2.50000000	    -26.60822504	     -8.41316222	     -3.58621062	      0.32460598	      1.23472386	     -0.26257552	      0.00000000	      0.50000000	      0.00000000	      0.25000000	     79.98788416	      4.10888814	     -4.35077010	     84.03064973	      1.46661151	     -0.12359854	     -9.58942623	      0.00000000	      0.00000000	     42.46558339	    -12.99065663	      2.65701173	     46.75509762	      0.81603040	    -22.32639027	     -7.31482267	      0.00000000	      0.00000000	    -64.49623610	      8.19981999	      8.83284002	     88.02193605	     -9.43888935	     41.39504726	     52.82898792	     50.85212984	      0.00000000	      0.00000000	     65.82037877	    -16.87733768	     12.20667326	     71.72201237	     52.44835346	      0.00000000	      0.00000000
      2.50500000	    -27.27633839	     -8.14863193	     -3.70099240	      0.32474019	      1.23464953	     -0.26339482	      0.00000000	      0.50000000	      0.00000000	      0.25000000	     79.39483098	      4.13546348	     -4.17413696	     81.90082097	      1.42943899	      1.28795444	     -9.73221642	      0.00000000	      0.00000000	     43.67650153	    -12.67536598	      2.77170163	     48.37530923	      0.84430842	    -22.20135556	     -7.90894748	      0.00000000	      0.00000000	    -64.52891120	      8.17274173	      8.29426158	     87.66016033	     -8.90401551	     39.90440068	     54.66169505	     50.97911050	      0.00000000	      0.00000000	     64.89742239	    -17.93553919	     11.44990948	     74.25116660	     52.81291307	      0.00000000	      0.00000000
      2.51000000	    -27.80726015	     -7.87224667	     -3.68463116	      0.32490530	      1.23446143	     -0.26434680	      0.00000000	      0.50000000	      0.00000000	      0.25000000	     78.62528856	      4.01685970	     -4.01072520	     79.73883373	      1.39170519	      2.55595911	     -9.88488760	      0.00000000	      0.00000000	     44.76330562	    -12.29064597	      2.88384183	     50.03995791	      0.87336202	    -21.83043007	     -8.48449515	      0.00000000	      0.00000000	    -64.45633408	      8.17504495	      7.95621746	     87.64228840	     -8.66391596	     39.47097631	     55.15722576	     51.01753843	      0.00000000	      0.00000000	     64.74738400	    -18.24496502	     11.21917946	     74.94201375	     52.90855594	      0.00000000	      0.00000000
      2.51500000	    -28.13460539	     -7.35681843	     -3.58032151	      0.32521678	      1.23435782	     -0.26510536	      0.00000000	      0.50000000	      0.00000000	      0.25000000	     77.61704311	      3.80098313	     -3.62517858	     77.56165819	      1.35370631	      3.75544724	    -10.36390726	      0.00000000	      0.00000000	     45.53122165	    -11.68670974	      2.85330187	     51.58287811	      0.90029106	    -21.32293187	     -8.93924877	      0.00000000	      0.00000000	    -64.41761273	      7.91346410	      7.37325451	     87.63661378	     -8.64819340	     39.29586776	     55.38301868	     51.03674999	      0.00000000	      0.00000000	     64.88850506	    -18.28179124	     11.16802791	     75.25818917	     52.95296320	      0.00000000	      0.00000000
      2.52000000	    -28.58703727	     -7.00429951	     -3.40751427	      0.32556339	      1.23341417	     -0.26601690	      0.00000000	      0.50000000	      0.00000000	      0.25000000	     76.73578578	      3.56189423	     -3.35770662	     75.39109855	      1.31582290	      4.88515996	    -10.55904543	      0.00000000	      0.00000000	     46.57466173	    -11.25783195	      2.82266648	     53.39273706	      0.93187906	    -20.37036480	     -9.22718446	      0.00000000	      0.00000000	    -64.45699228	      7.98574542	      6.68497591	     86.95428850	     -8.07490014	     37.63504262	     57.19082317	     51.20037559	      0.00000000	      0.00000000	     63.99982165	    -19.46777043	     10.69871721	     77.89181103	     53.35238566	      0.00000000	      0.00000000
      2.52500000	    -28.84661675	     -6.52934050	     -3.16054746	      0.32601930	      1.23259083	     -0.26689502	      0.00000000	      0.50000000	      0.00000000	      0.25000000	     75.65821165	      3.11412482	     -3.11409816	     73.22306577	      1.27798359	      5.97288050	    -10.45049932	      0.00000000	      0.00000000	     47.36403503	    -10.69437028	      2.73269117	     55.14285185	      0.96242432	    -19.36399732	     -9.59117526	      0.00000000	      0.00000000	    -64.40785060	      7.92574397	      6.09845123	     86.59753388	     -7.83002754	     36.85874448	     57.76459494	     51.26476930	      0.00000000	      0.00000000	     63.87672093	    -19.82970318	     10.71192071	     78.60022477	     53.48070339	      0.00000000	      0.00000000
